<svg width="229" height="38" viewBox="0 0 229 38" fill="none" xmlns="http://www.w3.org/2000/svg">
<g clip-path="url(#clip0_28_2)">
<path d="M14.64 6.184C13.552 6.184 12.768 6.43999 12.288 6.95199C11.808 7.46399 11.568 8.328 11.568 9.54399V11.512H17.568L16.752 16.792H11.568V37H3.98404V16.792H0.144043V11.512H3.98404V9.256C3.98404 6.69599 4.81604 4.61599 6.48004 3.016C8.17604 1.38399 10.592 0.567993 13.728 0.567993C16.256 0.567993 18.576 1.11199 20.688 2.2L18.624 7.14399C17.344 6.50399 16.016 6.184 14.64 6.184Z" fill="#F7F7F7"/>
<path d="M48.2614 10.696C50.2774 10.696 51.8934 11.384 53.1094 12.76C54.3254 14.104 54.9334 15.976 54.9334 18.376V37H47.3494V19.672C47.3494 17.4 46.6294 16.264 45.1894 16.264C44.3894 16.264 43.6854 16.536 43.0774 17.08C42.4694 17.624 41.8774 18.456 41.3014 19.576V37H33.7174V19.672C33.7174 17.4 32.9974 16.264 31.5574 16.264C30.7894 16.264 30.0854 16.552 29.4454 17.128C28.8374 17.672 28.2454 18.488 27.6694 19.576V37H20.0854V11.512H26.7094L27.2374 14.488C28.2294 13.208 29.3174 12.264 30.5014 11.656C31.7174 11.016 33.0934 10.696 34.6294 10.696C36.0694 10.696 37.3014 11.048 38.3254 11.752C39.3814 12.456 40.1494 13.448 40.6294 14.728C41.6534 13.352 42.7734 12.344 43.9894 11.704C45.2374 11.032 46.6614 10.696 48.2614 10.696Z" fill="#F7F7F7"/>
<path d="M71.6723 10.696C75.5763 10.696 78.6323 11.896 80.8403 14.296C83.0483 16.664 84.1523 19.992 84.1523 24.28C84.1523 27 83.6403 29.384 82.6163 31.432C81.6243 33.448 80.1843 35.016 78.2963 36.136C76.4403 37.256 74.2323 37.816 71.6723 37.816C67.8003 37.816 64.7443 36.632 62.5043 34.264C60.2963 31.864 59.1923 28.52 59.1923 24.232C59.1923 21.512 59.6883 19.144 60.6803 17.128C61.7043 15.08 63.1443 13.496 65.0003 12.376C66.8883 11.256 69.1123 10.696 71.6723 10.696ZM71.6723 16.264C70.1363 16.264 68.9843 16.92 68.2163 18.232C67.4483 19.512 67.0643 21.512 67.0643 24.232C67.0643 27.016 67.4323 29.048 68.1683 30.328C68.9363 31.608 70.1043 32.248 71.6723 32.248C73.2083 32.248 74.3603 31.608 75.1283 30.328C75.8963 29.016 76.2803 27 76.2803 24.28C76.2803 21.496 75.8963 19.464 75.1283 18.184C74.3923 16.904 73.2403 16.264 71.6723 16.264Z" fill="#F7F7F7"/>
<path d="M104.648 35.8C103.72 36.44 102.632 36.936 101.384 37.288C100.168 37.64 98.9515 37.816 97.7355 37.816C92.1675 37.784 89.3835 34.712 89.3835 28.6V16.792H85.7835V11.512H89.3835V5.99199L96.9675 5.12799V11.512H102.824L102.008 16.792H96.9675V28.504C96.9675 29.688 97.1595 30.536 97.5435 31.048C97.9275 31.56 98.5355 31.816 99.3675 31.816C100.232 31.816 101.144 31.544 102.104 31L104.648 35.8Z" fill="#F7F7F7"/>
<path d="M126.873 29.608C126.873 30.568 127.001 31.272 127.257 31.72C127.545 32.168 127.993 32.504 128.601 32.728L127.017 37.672C125.449 37.544 124.169 37.208 123.177 36.664C122.185 36.088 121.417 35.192 120.873 33.976C119.209 36.536 116.649 37.816 113.193 37.816C110.665 37.816 108.649 37.08 107.145 35.608C105.641 34.136 104.889 32.216 104.889 29.848C104.889 27.064 105.913 24.936 107.961 23.464C110.009 21.992 112.969 21.256 116.841 21.256H119.433V20.152C119.433 18.648 119.113 17.624 118.473 17.08C117.833 16.504 116.713 16.216 115.113 16.216C114.281 16.216 113.273 16.344 112.089 16.6C110.905 16.824 109.689 17.144 108.441 17.56L106.713 12.568C108.313 11.96 109.945 11.496 111.609 11.176C113.305 10.856 114.873 10.696 116.313 10.696C119.961 10.696 122.633 11.448 124.329 12.952C126.025 14.456 126.873 16.712 126.873 19.72V29.608ZM115.401 32.392C117.129 32.392 118.473 31.576 119.433 29.944V25.432H117.561C115.833 25.432 114.537 25.736 113.673 26.344C112.841 26.952 112.425 27.896 112.425 29.176C112.425 30.2 112.681 31 113.193 31.576C113.737 32.12 114.473 32.392 115.401 32.392Z" fill="#F7F7F7"/>
<path d="M168.048 1.816V37.432H161.328L160.944 34.456C159.152 36.984 156.736 38.248 153.696 38.248C150.528 38.248 148.112 37.032 146.448 34.6C144.816 32.168 144 28.84 144 24.616C144 22.024 144.432 19.704 145.296 17.656C146.16 15.608 147.376 14.008 148.944 12.856C150.544 11.704 152.368 11.128 154.416 11.128C156.848 11.128 158.864 11.928 160.464 13.528V1L168.048 1.816ZM156.048 32.68C157.808 32.68 159.28 31.72 160.464 29.8V18.808C159.856 18.072 159.232 17.528 158.592 17.176C157.984 16.824 157.28 16.648 156.48 16.648C155.072 16.648 153.952 17.304 153.12 18.616C152.288 19.928 151.872 21.944 151.872 24.664C151.872 27.64 152.224 29.72 152.928 30.904C153.664 32.088 154.704 32.68 156.048 32.68Z" fill="#16c64f"/>
<path d="M194.664 24.056C194.664 25.112 194.616 26.024 194.52 26.792H178.728C178.984 28.936 179.592 30.44 180.552 31.304C181.512 32.168 182.84 32.6 184.536 32.6C185.56 32.6 186.552 32.424 187.512 32.072C188.472 31.688 189.512 31.112 190.632 30.344L193.752 34.568C190.776 36.936 187.464 38.12 183.816 38.12C179.688 38.12 176.52 36.904 174.312 34.472C172.104 32.04 171 28.776 171 24.68C171 22.088 171.464 19.768 172.392 17.72C173.32 15.64 174.68 14.008 176.472 12.824C178.264 11.608 180.408 11 182.904 11C186.584 11 189.464 12.152 191.544 14.456C193.624 16.76 194.664 19.96 194.664 24.056ZM187.224 21.896C187.16 17.992 185.784 16.04 183.096 16.04C181.784 16.04 180.76 16.52 180.024 17.48C179.32 18.44 178.888 20.024 178.728 22.232H187.224V21.896Z" fill="#16c64f"/>
<path d="M220.485 11.816L212.469 37.304H203.493L195.285 11.816H203.541L208.053 31.544L212.757 11.816H220.485Z" fill="#16c64f"/>
<circle cx="136.5" cy="32.5" r="5.5" fill="#16c64f  "/>
</g>
<defs>
<clipPath id="clip0_28_2">
<rect width="229" height="38" fill="white"/>
</clipPath>
</defs>
</svg>
